<svg xmlns="http://www.w3.org/2000/svg" version="1.1" xmlns:xlink="http://www.w3.org/1999/xlink" xmlns:svgjs="http://svgjs.dev/svgjs" viewBox="0 0 800 800"><rect width="100%" height="100%" fill="hsl(238, 71%, 8%)"></rect><g fill="hsl(32, 100%, 51%)"><rect width="166" height="3" x="-40" y="528.5" rx="1.5" transform="rotate(45, 43, 530)" opacity="0.78"></rect><rect width="335" height="3" x="427.5" y="499.5" rx="1.5" transform="rotate(45, 595, 501)" opacity="0.62"></rect><rect width="261" height="3" x="127.5" y="613.5" rx="1.5" transform="rotate(45, 258, 615)" opacity="1.00"></rect><rect width="565" height="3" x="161.5" y="188.5" rx="1.5" transform="rotate(45, 444, 190)" opacity="0.69"></rect><rect width="167" height="3" x="68.5" y="718.5" rx="1.5" transform="rotate(45, 152, 720)" opacity="0.48"></rect><rect width="546" height="3" x="460" y="720.5" rx="1.5" transform="rotate(45, 733, 722)" opacity="0.36"></rect><rect width="454" height="3" x="254" y="30.5" rx="1.5" transform="rotate(45, 481, 32)" opacity="0.59"></rect><rect width="115" height="3" x="236.5" y="77.5" rx="1.5" transform="rotate(45, 294, 79)" opacity="0.53"></rect><rect width="135" height="3" x="93.5" y="548.5" rx="1.5" transform="rotate(45, 161, 550)" opacity="0.22"></rect><rect width="510" height="3" x="349" y="249.5" rx="1.5" transform="rotate(45, 604, 251)" opacity="0.96"></rect><rect width="362" height="3" x="-124" y="610.5" rx="1.5" transform="rotate(45, 57, 612)" opacity="0.63"></rect><rect width="384" height="3" x="549" y="438.5" rx="1.5" transform="rotate(45, 741, 440)" opacity="0.51"></rect><rect width="206" height="3" x="645" y="168.5" rx="1.5" transform="rotate(45, 748, 170)" opacity="0.94"></rect><rect width="742" height="3" x="-206" y="383.5" rx="1.5" transform="rotate(45, 165, 385)" opacity="0.13"></rect><rect width="566" height="3" x="366" y="451.5" rx="1.5" transform="rotate(45, 649, 453)" opacity="0.78"></rect><rect width="182" height="3" x="638" y="58.5" rx="1.5" transform="rotate(45, 729, 60)" opacity="0.47"></rect><rect width="229" height="3" x="327.5" y="553.5" rx="1.5" transform="rotate(45, 442, 555)" opacity="0.29"></rect><rect width="213" height="3" x="38.5" y="246.5" rx="1.5" transform="rotate(45, 145, 248)" opacity="0.19"></rect><rect width="71" height="3" x="437.5" y="730.5" rx="1.5" transform="rotate(45, 473, 732)" opacity="0.80"></rect><rect width="270" height="3" x="408" y="179.5" rx="1.5" transform="rotate(45, 543, 181)" opacity="0.11"></rect><rect width="305" height="3" x="445.5" y="745.5" rx="1.5" transform="rotate(45, 598, 747)" opacity="0.28"></rect><rect width="371" height="3" x="324.5" y="91.5" rx="1.5" transform="rotate(45, 510, 93)" opacity="0.54"></rect><rect width="516" height="3" x="-16" y="181.5" rx="1.5" transform="rotate(45, 242, 183)" opacity="0.77"></rect><rect width="637" height="3" x="14.5" y="539.5" rx="1.5" transform="rotate(45, 333, 541)" opacity="0.92"></rect><rect width="834" height="3" x="-176" y="456.5" rx="1.5" transform="rotate(45, 241, 458)" opacity="0.83"></rect><rect width="445" height="3" x="-160.5" y="758.5" rx="1.5" transform="rotate(45, 62, 760)" opacity="0.85"></rect><rect width="312" height="3" x="-102" y="342.5" rx="1.5" transform="rotate(45, 54, 344)" opacity="0.67"></rect><rect width="653" height="3" x="-255.5" y="447.5" rx="1.5" transform="rotate(45, 71, 449)" opacity="0.27"></rect><rect width="411" height="3" x="-171.5" y="696.5" rx="1.5" transform="rotate(45, 34, 698)" opacity="0.28"></rect><rect width="362" height="3" x="339" y="411.5" rx="1.5" transform="rotate(45, 520, 413)" opacity="0.44"></rect><rect width="133" height="3" x="461.5" y="532.5" rx="1.5" transform="rotate(45, 528, 534)" opacity="0.96"></rect><rect width="286" height="3" x="357" y="300.5" rx="1.5" transform="rotate(45, 500, 302)" opacity="0.36"></rect><rect width="301" height="3" x="557.5" y="246.5" rx="1.5" transform="rotate(45, 708, 248)" opacity="0.53"></rect><rect width="47" height="3" x="318.5" y="755.5" rx="1.5" transform="rotate(45, 342, 757)" opacity="0.47"></rect><rect width="665" height="3" x="309.5" y="347.5" rx="1.5" transform="rotate(45, 642, 349)" opacity="0.71"></rect><rect width="737" height="3" x="-7.5" y="239.5" rx="1.5" transform="rotate(45, 361, 241)" opacity="0.97"></rect><rect width="476" height="3" x="-94" y="653.5" rx="1.5" transform="rotate(45, 144, 655)" opacity="0.36"></rect><rect width="774" height="3" x="-7" y="662.5" rx="1.5" transform="rotate(45, 380, 664)" opacity="0.50"></rect><rect width="222" height="3" x="45" y="775.5" rx="1.5" transform="rotate(45, 156, 777)" opacity="0.07"></rect><rect width="317" height="3" x="236.5" y="347.5" rx="1.5" transform="rotate(45, 395, 349)" opacity="0.10"></rect><rect width="369" height="3" x="-161.5" y="188.5" rx="1.5" transform="rotate(45, 23, 190)" opacity="0.08"></rect><rect width="263" height="3" x="-5.5" y="92.5" rx="1.5" transform="rotate(45, 126, 94)" opacity="0.25"></rect><rect width="444" height="3" x="167" y="114.5" rx="1.5" transform="rotate(45, 389, 116)" opacity="0.25"></rect><rect width="516" height="3" x="-58" y="60.5" rx="1.5" transform="rotate(45, 200, 62)" opacity="0.34"></rect><rect width="622" height="3" x="437" y="559.5" rx="1.5" transform="rotate(45, 748, 561)" opacity="0.64"></rect><rect width="60" height="3" x="728" y="338.5" rx="1.5" transform="rotate(45, 758, 340)" opacity="0.12"></rect><rect width="446" height="3" x="324" y="637.5" rx="1.5" transform="rotate(45, 547, 639)" opacity="0.14"></rect><rect width="356" height="3" x="-125" y="39.5" rx="1.5" transform="rotate(45, 53, 41)" opacity="0.68"></rect><rect width="354" height="3" x="-112" y="142.5" rx="1.5" transform="rotate(45, 65, 144)" opacity="0.87"></rect><rect width="302" height="3" x="220" y="29.5" rx="1.5" transform="rotate(45, 371, 31)" opacity="0.76"></rect><rect width="195" height="3" x="554.5" y="607.5" rx="1.5" transform="rotate(45, 652, 609)" opacity="0.33"></rect><rect width="210" height="3" x="140" y="727.5" rx="1.5" transform="rotate(45, 245, 729)" opacity="0.61"></rect><rect width="216" height="3" x="257" y="432.5" rx="1.5" transform="rotate(45, 365, 434)" opacity="0.83"></rect><rect width="534" height="3" x="-215" y="251.5" rx="1.5" transform="rotate(45, 52, 253)" opacity="0.36"></rect><rect width="452" height="3" x="389" y="78.5" rx="1.5" transform="rotate(45, 615, 80)" opacity="0.62"></rect><rect width="184" height="3" x="164" y="303.5" rx="1.5" transform="rotate(45, 256, 305)" opacity="0.93"></rect></g><defs><linearGradient x1="50%" y1="0%" x2="50%" y2="100%" id="ffflurry-grad" gradientTransform="rotate(270)"><stop stop-color="rgb(6, 8, 61)" stop-opacity="1" offset="0%"></stop><stop stop-color="hsl(1.4, 100%, 67%)" stop-opacity="1" offset="45%"></stop><stop stop-color="hsl(167, 52%, 78%)" stop-opacity="1" offset="100%"></stop></linearGradient></defs></svg>